<?xml version="1.0" standalone="no"?>
<!DOCTYPE svg PUBLIC "-//W3C//DTD SVG 20010904//EN"
 "http://www.w3.org/TR/2001/REC-SVG-20010904/DTD/svg10.dtd">
<svg version="1.0" xmlns="http://www.w3.org/2000/svg"
 width="512.000000pt" height="512.000000pt" viewBox="0 0 512.000000 512.000000"
 preserveAspectRatio="xMidYMid meet">
<metadata>
Created by potrace 1.14, written by Peter Selinger 2001-2017
</metadata>
<g transform="translate(0.000000,512.000000) scale(0.100000,-0.100000)"
fill="#000000" stroke="none">
<path d="M377 5105 c-173 -47 -316 -193 -362 -366 -11 -41 -15 -125 -15 -347
l0 -292 60 30 c158 80 401 112 548 72 170 -46 294 -171 365 -369 54 -149 60
-346 18 -588 -23 -129 -21 -120 -116 -520 -130 -547 -146 -634 -152 -841 -6
-200 -1 -229 50 -302 22 -30 50 -52 95 -74 56 -28 76 -32 171 -36 228 -9 408
72 596 269 101 106 159 193 240 361 90 189 148 383 201 677 13 73 14 95 5 101
-7 4 -44 10 -81 14 -89 8 -218 48 -300 94 -100 54 -208 168 -258 272 -50 102
-69 172 -83 303 -10 104 0 222 25 295 72 204 220 333 430 377 271 55 496 -40
605 -258 69 -137 83 -210 89 -449 3 -152 7 -208 16 -208 7 0 45 21 86 46 58
36 87 48 128 52 70 6 92 -12 92 -78 0 -150 -104 -295 -267 -372 -71 -34 -61
-4 -88 -263 -40 -380 -106 -641 -241 -950 -196 -445 -512 -707 -974 -806 -138
-29 -441 -37 -568 -15 -189 33 -326 99 -438 210 -116 116 -176 265 -193 479
-12 150 -5 191 116 672 206 824 221 892 230 1075 7 135 -6 229 -41 305 -34 75
-71 97 -154 93 -56 -4 -69 -9 -135 -54 l-72 -51 -3 -1604 c-2 -1180 0 -1619 8
-1659 38 -180 189 -337 371 -385 81 -22 4277 -22 4358 0 176 46 320 190 366
366 12 43 15 139 15 453 0 379 -1 398 -18 384 -28 -25 -284 -165 -395 -218
-56 -26 -133 -57 -171 -69 -125 -38 -257 -5 -336 86 -83 95 -113 216 -114 463
-1 220 9 295 76 585 76 334 71 428 -25 478 -62 32 -151 28 -230 -11 -73 -36
-173 -135 -239 -236 -53 -82 -151 -284 -182 -376 -53 -160 -57 -206 -40 -422
29 -371 -4 -455 -224 -571 -133 -70 -220 -78 -284 -27 -40 31 -89 134 -104
218 -26 147 -16 611 21 956 64 597 251 1201 576 1856 53 107 106 205 118 217
60 63 156 74 225 26 98 -69 184 -294 170 -448 -14 -154 -78 -313 -226 -565
-124 -212 -128 -220 -163 -395 -32 -153 -32 -159 -12 -131 89 120 122 158 183
209 77 66 216 138 314 164 48 14 100 18 200 17 208 -2 339 -45 445 -145 100
-94 135 -195 135 -386 0 -181 -22 -322 -101 -630 -97 -383 -100 -447 -20 -445
58 1 117 41 270 183 l151 141 0 1472 c0 1243 -2 1479 -15 1525 -46 176 -190
320 -366 366 -77 21 -4287 21 -4362 0z"/>
<path d="M1957 3859 c-62 -36 -62 -223 -1 -354 25 -53 102 -138 146 -161 l27
-14 7 45 c3 25 4 116 2 203 -5 175 -18 223 -70 267 -31 27 -79 32 -111 14z"/>
</g>
</svg>
